solid ascii
  facet normal 9.847690e-001 1.738676e-001 0.000000e+000
    outer loop
      vertex   -5.000000e+000 0.000000e+000 1.000000e+000
      vertex   -4.829629e+000 -1.294095e+000 1.000000e+000
      vertex   -4.829629e+000 -1.294095e+000 0.000000e+000
    endloop
  endfacet
  facet normal 9.062136e-001 4.228202e-001 0.000000e+000
    outer loop
      vertex   -4.829629e+000 -1.294095e+000 1.000000e+000
      vertex   -4.330127e+000 -2.500000e+000 1.000000e+000
      vertex   -4.330127e+000 -2.500000e+000 0.000000e+000
    endloop
  endfacet
  facet normal 7.659012e-001 6.429583e-001 0.000000e+000
    outer loop
      vertex   -4.330127e+000 -2.500000e+000 1.000000e+000
      vertex   -3.535534e+000 -3.535534e+000 1.000000e+000
      vertex   -3.535534e+000 -3.535534e+000 0.000000e+000
    endloop
  endfacet
  facet normal 5.733939e-001 8.192798e-001 0.000000e+000
    outer loop
      vertex   -3.535534e+000 -3.535534e+000 1.000000e+000
      vertex   -2.500000e+000 -4.330127e+000 1.000000e+000
      vertex   -2.500000e+000 -4.330127e+000 0.000000e+000
    endloop
  endfacet
  facet normal 3.418108e-001 9.397688e-001 0.000000e+000
    outer loop
      vertex   -2.500000e+000 -4.330127e+000 1.000000e+000
      vertex   -1.294095e+000 -4.829629e+000 1.000000e+000
      vertex   -1.294095e+000 -4.829629e+000 0.000000e+000
    endloop
  endfacet
  facet normal 8.693379e-002 9.962141e-001 0.000000e+000
    outer loop
      vertex   -1.294095e+000 -4.829629e+000 1.000000e+000
      vertex   5.359347e-015 -5.000000e+000 1.000000e+000
      vertex   5.359347e-015 -5.000000e+000 0.000000e+000
    endloop
  endfacet
  facet normal -1.738676e-001 9.847690e-001 0.000000e+000
    outer loop
      vertex   5.359347e-015 -5.000000e+000 1.000000e+000
      vertex   1.294095e+000 -4.829629e+000 1.000000e+000
      vertex   1.294095e+000 -4.829629e+000 0.000000e+000
    endloop
  endfacet
  facet normal -4.228202e-001 9.062136e-001 0.000000e+000
    outer loop
      vertex   1.294095e+000 -4.829629e+000 1.000000e+000
      vertex   2.500000e+000 -4.330127e+000 1.000000e+000
      vertex   2.500000e+000 -4.330127e+000 0.000000e+000
    endloop
  endfacet
  facet normal -6.429583e-001 7.659012e-001 0.000000e+000
    outer loop
      vertex   2.500000e+000 -4.330127e+000 1.000000e+000
      vertex   3.535534e+000 -3.535534e+000 1.000000e+000
      vertex   3.535534e+000 -3.535534e+000 0.000000e+000
    endloop
  endfacet
  facet normal -8.192798e-001 5.733939e-001 0.000000e+000
    outer loop
      vertex   3.535534e+000 -3.535534e+000 1.000000e+000
      vertex   4.330127e+000 -2.500000e+000 1.000000e+000
      vertex   4.330127e+000 -2.500000e+000 0.000000e+000
    endloop
  endfacet
  facet normal -9.397688e-001 3.418108e-001 0.000000e+000
    outer loop
      vertex   4.330127e+000 -2.500000e+000 1.000000e+000
      vertex   4.829629e+000 -1.294095e+000 1.000000e+000
      vertex   4.829629e+000 -1.294095e+000 0.000000e+000
    endloop
  endfacet
  facet normal -9.962141e-001 8.693379e-002 0.000000e+000
    outer loop
      vertex   4.829629e+000 -1.294095e+000 1.000000e+000
      vertex   5.000000e+000 2.832749e-015 1.000000e+000
      vertex   5.000000e+000 2.832749e-015 0.000000e+000
    endloop
  endfacet
  facet normal -9.847690e-001 -1.738676e-001 0.000000e+000
    outer loop
      vertex   5.000000e+000 2.832749e-015 1.000000e+000
      vertex   4.829629e+000 1.294095e+000 1.000000e+000
      vertex   4.829629e+000 1.294095e+000 0.000000e+000
    endloop
  endfacet
  facet normal -9.062136e-001 -4.228202e-001 0.000000e+000
    outer loop
      vertex   4.829629e+000 1.294095e+000 1.000000e+000
      vertex   4.330127e+000 2.500000e+000 1.000000e+000
      vertex   4.330127e+000 2.500000e+000 0.000000e+000
    endloop
  endfacet
  facet normal -7.659012e-001 -6.429583e-001 0.000000e+000
    outer loop
      vertex   4.330127e+000 2.500000e+000 1.000000e+000
      vertex   3.535534e+000 3.535534e+000 1.000000e+000
      vertex   3.535534e+000 3.535534e+000 0.000000e+000
    endloop
  endfacet
  facet normal -5.733939e-001 -8.192798e-001 0.000000e+000
    outer loop
      vertex   3.535534e+000 3.535534e+000 1.000000e+000
      vertex   2.500000e+000 4.330127e+000 1.000000e+000
      vertex   2.500000e+000 4.330127e+000 0.000000e+000
    endloop
  endfacet
  facet normal -3.418108e-001 -9.397688e-001 0.000000e+000
    outer loop
      vertex   2.500000e+000 4.330127e+000 1.000000e+000
      vertex   1.294095e+000 4.829629e+000 1.000000e+000
      vertex   1.294095e+000 4.829629e+000 0.000000e+000
    endloop
  endfacet
  facet normal -8.693379e-002 -9.962141e-001 0.000000e+000
    outer loop
      vertex   1.294095e+000 4.829629e+000 1.000000e+000
      vertex   -1.416375e-015 5.000000e+000 1.000000e+000
      vertex   -1.416375e-015 5.000000e+000 0.000000e+000
    endloop
  endfacet
  facet normal 1.738676e-001 -9.847690e-001 0.000000e+000
    outer loop
      vertex   -1.416375e-015 5.000000e+000 1.000000e+000
      vertex   -1.294095e+000 4.829629e+000 1.000000e+000
      vertex   -1.294095e+000 4.829629e+000 0.000000e+000
    endloop
  endfacet
  facet normal 4.228202e-001 -9.062136e-001 0.000000e+000
    outer loop
      vertex   -1.294095e+000 4.829629e+000 1.000000e+000
      vertex   -2.500000e+000 4.330127e+000 1.000000e+000
      vertex   -2.500000e+000 4.330127e+000 0.000000e+000
    endloop
  endfacet
  facet normal 6.429583e-001 -7.659012e-001 0.000000e+000
    outer loop
      vertex   -2.500000e+000 4.330127e+000 1.000000e+000
      vertex   -3.535534e+000 3.535534e+000 1.000000e+000
      vertex   -3.535534e+000 3.535534e+000 0.000000e+000
    endloop
  endfacet
  facet normal 8.192798e-001 -5.733939e-001 0.000000e+000
    outer loop
      vertex   -3.535534e+000 3.535534e+000 1.000000e+000
      vertex   -4.330127e+000 2.500000e+000 1.000000e+000
      vertex   -4.330127e+000 2.500000e+000 0.000000e+000
    endloop
  endfacet
  facet normal 9.397688e-001 -3.418108e-001 0.000000e+000
    outer loop
      vertex   -4.330127e+000 2.500000e+000 1.000000e+000
      vertex   -4.829629e+000 1.294095e+000 1.000000e+000
      vertex   -4.829629e+000 1.294095e+000 0.000000e+000
    endloop
  endfacet
  facet normal 9.962141e-001 -8.693379e-002 0.000000e+000
    outer loop
      vertex   -4.829629e+000 1.294095e+000 1.000000e+000
      vertex   -5.000000e+000 0.000000e+000 1.000000e+000
      vertex   -5.000000e+000 0.000000e+000 0.000000e+000
    endloop
  endfacet
  facet normal 9.847690e-001 -1.738676e-001 0.000000e+000
    outer loop
      vertex   -5.000000e+000 0.000000e+000 0.000000e+000
      vertex   -4.829629e+000 1.294095e+000 0.000000e+000
      vertex   -4.829629e+000 1.294095e+000 1.000000e+000
    endloop
  endfacet
  facet normal 9.062136e-001 -4.228202e-001 0.000000e+000
    outer loop
      vertex   -4.829629e+000 1.294095e+000 0.000000e+000
      vertex   -4.330127e+000 2.500000e+000 0.000000e+000
      vertex   -4.330127e+000 2.500000e+000 1.000000e+000
    endloop
  endfacet
  facet normal 7.659012e-001 -6.429583e-001 0.000000e+000
    outer loop
      vertex   -4.330127e+000 2.500000e+000 0.000000e+000
      vertex   -3.535534e+000 3.535534e+000 0.000000e+000
      vertex   -3.535534e+000 3.535534e+000 1.000000e+000
    endloop
  endfacet
  facet normal 5.733939e-001 -8.192798e-001 0.000000e+000
    outer loop
      vertex   -3.535534e+000 3.535534e+000 0.000000e+000
      vertex   -2.500000e+000 4.330127e+000 0.000000e+000
      vertex   -2.500000e+000 4.330127e+000 1.000000e+000
    endloop
  endfacet
  facet normal 3.418108e-001 -9.397688e-001 0.000000e+000
    outer loop
      vertex   -2.500000e+000 4.330127e+000 0.000000e+000
      vertex   -1.294095e+000 4.829629e+000 0.000000e+000
      vertex   -1.294095e+000 4.829629e+000 1.000000e+000
    endloop
  endfacet
  facet normal 8.693379e-002 -9.962141e-001 0.000000e+000
    outer loop
      vertex   -1.294095e+000 4.829629e+000 0.000000e+000
      vertex   -1.416375e-015 5.000000e+000 0.000000e+000
      vertex   -1.416375e-015 5.000000e+000 1.000000e+000
    endloop
  endfacet
  facet normal -1.738676e-001 -9.847690e-001 0.000000e+000
    outer loop
      vertex   -1.416375e-015 5.000000e+000 0.000000e+000
      vertex   1.294095e+000 4.829629e+000 0.000000e+000
      vertex   1.294095e+000 4.829629e+000 1.000000e+000
    endloop
  endfacet
  facet normal -4.228202e-001 -9.062136e-001 0.000000e+000
    outer loop
      vertex   1.294095e+000 4.829629e+000 0.000000e+000
      vertex   2.500000e+000 4.330127e+000 0.000000e+000
      vertex   2.500000e+000 4.330127e+000 1.000000e+000
    endloop
  endfacet
  facet normal -6.429583e-001 -7.659012e-001 0.000000e+000
    outer loop
      vertex   2.500000e+000 4.330127e+000 0.000000e+000
      vertex   3.535534e+000 3.535534e+000 0.000000e+000
      vertex   3.535534e+000 3.535534e+000 1.000000e+000
    endloop
  endfacet
  facet normal -8.192798e-001 -5.733939e-001 0.000000e+000
    outer loop
      vertex   3.535534e+000 3.535534e+000 0.000000e+000
      vertex   4.330127e+000 2.500000e+000 0.000000e+000
      vertex   4.330127e+000 2.500000e+000 1.000000e+000
    endloop
  endfacet
  facet normal -9.397688e-001 -3.418108e-001 0.000000e+000
    outer loop
      vertex   4.330127e+000 2.500000e+000 0.000000e+000
      vertex   4.829629e+000 1.294095e+000 0.000000e+000
      vertex   4.829629e+000 1.294095e+000 1.000000e+000
    endloop
  endfacet
  facet normal -9.962141e-001 -8.693379e-002 0.000000e+000
    outer loop
      vertex   4.829629e+000 1.294095e+000 0.000000e+000
      vertex   5.000000e+000 2.832749e-015 0.000000e+000
      vertex   5.000000e+000 2.832749e-015 1.000000e+000
    endloop
  endfacet
  facet normal -9.847690e-001 1.738676e-001 0.000000e+000
    outer loop
      vertex   5.000000e+000 2.832749e-015 0.000000e+000
      vertex   4.829629e+000 -1.294095e+000 0.000000e+000
      vertex   4.829629e+000 -1.294095e+000 1.000000e+000
    endloop
  endfacet
  facet normal -9.062136e-001 4.228202e-001 0.000000e+000
    outer loop
      vertex   4.829629e+000 -1.294095e+000 0.000000e+000
      vertex   4.330127e+000 -2.500000e+000 0.000000e+000
      vertex   4.330127e+000 -2.500000e+000 1.000000e+000
    endloop
  endfacet
  facet normal -7.659012e-001 6.429583e-001 0.000000e+000
    outer loop
      vertex   4.330127e+000 -2.500000e+000 0.000000e+000
      vertex   3.535534e+000 -3.535534e+000 0.000000e+000
      vertex   3.535534e+000 -3.535534e+000 1.000000e+000
    endloop
  endfacet
  facet normal -5.733939e-001 8.192798e-001 0.000000e+000
    outer loop
      vertex   3.535534e+000 -3.535534e+000 0.000000e+000
      vertex   2.500000e+000 -4.330127e+000 0.000000e+000
      vertex   2.500000e+000 -4.330127e+000 1.000000e+000
    endloop
  endfacet
  facet normal -3.418108e-001 9.397688e-001 0.000000e+000
    outer loop
      vertex   2.500000e+000 -4.330127e+000 0.000000e+000
      vertex   1.294095e+000 -4.829629e+000 0.000000e+000
      vertex   1.294095e+000 -4.829629e+000 1.000000e+000
    endloop
  endfacet
  facet normal -8.693379e-002 9.962141e-001 0.000000e+000
    outer loop
      vertex   1.294095e+000 -4.829629e+000 0.000000e+000
      vertex   5.359347e-015 -5.000000e+000 0.000000e+000
      vertex   5.359347e-015 -5.000000e+000 1.000000e+000
    endloop
  endfacet
  facet normal 1.738676e-001 9.847690e-001 0.000000e+000
    outer loop
      vertex   5.359347e-015 -5.000000e+000 0.000000e+000
      vertex   -1.294095e+000 -4.829629e+000 0.000000e+000
      vertex   -1.294095e+000 -4.829629e+000 1.000000e+000
    endloop
  endfacet
  facet normal 4.228202e-001 9.062136e-001 0.000000e+000
    outer loop
      vertex   -1.294095e+000 -4.829629e+000 0.000000e+000
      vertex   -2.500000e+000 -4.330127e+000 0.000000e+000
      vertex   -2.500000e+000 -4.330127e+000 1.000000e+000
    endloop
  endfacet
  facet normal 6.429583e-001 7.659012e-001 0.000000e+000
    outer loop
      vertex   -2.500000e+000 -4.330127e+000 0.000000e+000
      vertex   -3.535534e+000 -3.535534e+000 0.000000e+000
      vertex   -3.535534e+000 -3.535534e+000 1.000000e+000
    endloop
  endfacet
  facet normal 8.192798e-001 5.733939e-001 0.000000e+000
    outer loop
      vertex   -3.535534e+000 -3.535534e+000 0.000000e+000
      vertex   -4.330127e+000 -2.500000e+000 0.000000e+000
      vertex   -4.330127e+000 -2.500000e+000 1.000000e+000
    endloop
  endfacet
  facet normal 9.397688e-001 3.418108e-001 0.000000e+000
    outer loop
      vertex   -4.330127e+000 -2.500000e+000 0.000000e+000
      vertex   -4.829629e+000 -1.294095e+000 0.000000e+000
      vertex   -4.829629e+000 -1.294095e+000 1.000000e+000
    endloop
  endfacet
  facet normal 9.962141e-001 8.693379e-002 0.000000e+000
    outer loop
      vertex   -4.829629e+000 -1.294095e+000 0.000000e+000
      vertex   -5.000000e+000 0.000000e+000 0.000000e+000
      vertex   -5.000000e+000 0.000000e+000 1.000000e+000
    endloop
  endfacet
  facet normal 0.000000e+000 0.000000e+000 1.000000e+000
    outer loop
      vertex   5.000000e+000 8.660254e+000 1.000000e+000
      vertex   2.500000e+000 4.330127e+000 1.000000e+000
      vertex   3.535534e+000 3.535534e+000 1.000000e+000
    endloop
  endfacet
  facet normal 0.000000e+000 0.000000e+000 1.000000e+000
    outer loop
      vertex   5.000000e+000 8.660254e+000 1.000000e+000
      vertex   2.588190e+000 9.659258e+000 1.000000e+000
      vertex   1.294095e+000 4.829629e+000 1.000000e+000
    endloop
  endfacet
  facet normal 0.000000e+000 0.000000e+000 1.000000e+000
    outer loop
      vertex   -2.588190e+000 9.659258e+000 1.000000e+000
      vertex   -1.294095e+000 4.829629e+000 1.000000e+000
      vertex   -1.416375e-015 5.000000e+000 1.000000e+000
    endloop
  endfacet
  facet normal 0.000000e+000 0.000000e+000 1.000000e+000
    outer loop
      vertex   -2.588190e+000 9.659258e+000 1.000000e+000
      vertex   -5.000000e+000 8.660254e+000 1.000000e+000
      vertex   -2.500000e+000 4.330127e+000 1.000000e+000
    endloop
  endfacet
  facet normal 0.000000e+000 0.000000e+000 1.000000e+000
    outer loop
      vertex   -8.660254e+000 5.000000e+000 1.000000e+000
      vertex   -4.330127e+000 2.500000e+000 1.000000e+000
      vertex   -3.535534e+000 3.535534e+000 1.000000e+000
    endloop
  endfacet
  facet normal 0.000000e+000 0.000000e+000 1.000000e+000
    outer loop
      vertex   -8.660254e+000 5.000000e+000 1.000000e+000
      vertex   -9.659258e+000 2.588190e+000 1.000000e+000
      vertex   -4.829629e+000 1.294095e+000 1.000000e+000
    endloop
  endfacet
  facet normal 0.000000e+000 0.000000e+000 1.000000e+000
    outer loop
      vertex   1.071869e-014 -1.000000e+001 1.000000e+000
      vertex   5.359347e-015 -5.000000e+000 1.000000e+000
      vertex   -1.294095e+000 -4.829629e+000 1.000000e+000
    endloop
  endfacet
  facet normal 0.000000e+000 0.000000e+000 1.000000e+000
    outer loop
      vertex   1.071869e-014 -1.000000e+001 1.000000e+000
      vertex   2.588190e+000 -9.659258e+000 1.000000e+000
      vertex   1.294095e+000 -4.829629e+000 1.000000e+000
    endloop
  endfacet
  facet normal 0.000000e+000 0.000000e+000 1.000000e+000
    outer loop
      vertex   9.659258e+000 2.588190e+000 1.000000e+000
      vertex   4.829629e+000 1.294095e+000 1.000000e+000
      vertex   5.000000e+000 2.832749e-015 1.000000e+000
    endloop
  endfacet
  facet normal 0.000000e+000 0.000000e+000 1.000000e+000
    outer loop
      vertex   9.659258e+000 2.588190e+000 1.000000e+000
      vertex   8.660254e+000 5.000000e+000 1.000000e+000
      vertex   4.330127e+000 2.500000e+000 1.000000e+000
    endloop
  endfacet
  facet normal 0.000000e+000 0.000000e+000 1.000000e+000
    outer loop
      vertex   7.071068e+000 7.071068e+000 1.000000e+000
      vertex   3.535534e+000 3.535534e+000 1.000000e+000
      vertex   4.330127e+000 2.500000e+000 1.000000e+000
    endloop
  endfacet
  facet normal 0.000000e+000 0.000000e+000 1.000000e+000
    outer loop
      vertex   1.294095e+000 4.829629e+000 1.000000e+000
      vertex   2.500000e+000 4.330127e+000 1.000000e+000
      vertex   5.000000e+000 8.660254e+000 1.000000e+000
    endloop
  endfacet
  facet normal 0.000000e+000 0.000000e+000 1.000000e+000
    outer loop
      vertex   -2.832749e-015 1.000000e+001 1.000000e+000
      vertex   -1.416375e-015 5.000000e+000 1.000000e+000
      vertex   1.294095e+000 4.829629e+000 1.000000e+000
    endloop
  endfacet
  facet normal 0.000000e+000 0.000000e+000 1.000000e+000
    outer loop
      vertex   -2.500000e+000 4.330127e+000 1.000000e+000
      vertex   -1.294095e+000 4.829629e+000 1.000000e+000
      vertex   -2.588190e+000 9.659258e+000 1.000000e+000
    endloop
  endfacet
  facet normal 0.000000e+000 0.000000e+000 1.000000e+000
    outer loop
      vertex   -7.071068e+000 7.071068e+000 1.000000e+000
      vertex   -3.535534e+000 3.535534e+000 1.000000e+000
      vertex   -2.500000e+000 4.330127e+000 1.000000e+000
    endloop
  endfacet
  facet normal 0.000000e+000 0.000000e+000 1.000000e+000
    outer loop
      vertex   -4.829629e+000 1.294095e+000 1.000000e+000
      vertex   -4.330127e+000 2.500000e+000 1.000000e+000
      vertex   -8.660254e+000 5.000000e+000 1.000000e+000
    endloop
  endfacet
  facet normal 0.000000e+000 0.000000e+000 1.000000e+000
    outer loop
      vertex   1.294095e+000 -4.829629e+000 1.000000e+000
      vertex   5.359347e-015 -5.000000e+000 1.000000e+000
      vertex   1.071869e-014 -1.000000e+001 1.000000e+000
    endloop
  endfacet
  facet normal 0.000000e+000 0.000000e+000 1.000000e+000
    outer loop
      vertex   5.000000e+000 -8.660254e+000 1.000000e+000
      vertex   2.500000e+000 -4.330127e+000 1.000000e+000
      vertex   1.294095e+000 -4.829629e+000 1.000000e+000
    endloop
  endfacet
  facet normal 0.000000e+000 0.000000e+000 1.000000e+000
    outer loop
      vertex   7.071068e+000 -7.071068e+000 1.000000e+000
      vertex   3.535534e+000 -3.535534e+000 1.000000e+000
      vertex   2.500000e+000 -4.330127e+000 1.000000e+000
    endloop
  endfacet
  facet normal 0.000000e+000 0.000000e+000 1.000000e+000
    outer loop
      vertex   7.071068e+000 -7.071068e+000 1.000000e+000
      vertex   8.660254e+000 -5.000000e+000 1.000000e+000
      vertex   4.330127e+000 -2.500000e+000 1.000000e+000
    endloop
  endfacet
  facet normal 0.000000e+000 0.000000e+000 1.000000e+000
    outer loop
      vertex   4.330127e+000 2.500000e+000 1.000000e+000
      vertex   4.829629e+000 1.294095e+000 1.000000e+000
      vertex   9.659258e+000 2.588190e+000 1.000000e+000
    endloop
  endfacet
  facet normal 0.000000e+000 0.000000e+000 1.000000e+000
    outer loop
      vertex   3.535534e+000 3.535534e+000 1.000000e+000
      vertex   7.071068e+000 7.071068e+000 1.000000e+000
      vertex   5.000000e+000 8.660254e+000 1.000000e+000
    endloop
  endfacet
  facet normal 0.000000e+000 0.000000e+000 1.000000e+000
    outer loop
      vertex   -1.416375e-015 5.000000e+000 1.000000e+000
      vertex   -2.832749e-015 1.000000e+001 1.000000e+000
      vertex   -2.588190e+000 9.659258e+000 1.000000e+000
    endloop
  endfacet
  facet normal 0.000000e+000 0.000000e+000 1.000000e+000
    outer loop
      vertex   -3.535534e+000 3.535534e+000 1.000000e+000
      vertex   -7.071068e+000 7.071068e+000 1.000000e+000
      vertex   -8.660254e+000 5.000000e+000 1.000000e+000
    endloop
  endfacet
  facet normal 0.000000e+000 0.000000e+000 1.000000e+000
    outer loop
      vertex   -8.660254e+000 -5.000000e+000 1.000000e+000
      vertex   -4.330127e+000 -2.500000e+000 1.000000e+000
      vertex   -4.829629e+000 -1.294095e+000 1.000000e+000
    endloop
  endfacet
  facet normal 0.000000e+000 0.000000e+000 1.000000e+000
    outer loop
      vertex   -8.660254e+000 -5.000000e+000 1.000000e+000
      vertex   -7.071068e+000 -7.071068e+000 1.000000e+000
      vertex   -3.535534e+000 -3.535534e+000 1.000000e+000
    endloop
  endfacet
  facet normal 0.000000e+000 0.000000e+000 1.000000e+000
    outer loop
      vertex   -5.000000e+000 -8.660254e+000 1.000000e+000
      vertex   -2.500000e+000 -4.330127e+000 1.000000e+000
      vertex   -3.535534e+000 -3.535534e+000 1.000000e+000
    endloop
  endfacet
  facet normal 0.000000e+000 0.000000e+000 1.000000e+000
    outer loop
      vertex   -5.000000e+000 -8.660254e+000 1.000000e+000
      vertex   -2.588190e+000 -9.659258e+000 1.000000e+000
      vertex   -1.294095e+000 -4.829629e+000 1.000000e+000
    endloop
  endfacet
  facet normal 0.000000e+000 0.000000e+000 1.000000e+000
    outer loop
      vertex   1.294095e+000 -4.829629e+000 1.000000e+000
      vertex   2.588190e+000 -9.659258e+000 1.000000e+000
      vertex   5.000000e+000 -8.660254e+000 1.000000e+000
    endloop
  endfacet
  facet normal 0.000000e+000 0.000000e+000 1.000000e+000
    outer loop
      vertex   4.330127e+000 -2.500000e+000 1.000000e+000
      vertex   3.535534e+000 -3.535534e+000 1.000000e+000
      vertex   7.071068e+000 -7.071068e+000 1.000000e+000
    endloop
  endfacet
  facet normal 0.000000e+000 0.000000e+000 1.000000e+000
    outer loop
      vertex   8.660254e+000 -5.000000e+000 1.000000e+000
      vertex   9.659258e+000 -2.588190e+000 1.000000e+000
      vertex   4.829629e+000 -1.294095e+000 1.000000e+000
    endloop
  endfacet
  facet normal 0.000000e+000 0.000000e+000 1.000000e+000
    outer loop
      vertex   1.000000e+001 5.665498e-015 1.000000e+000
      vertex   5.000000e+000 2.832749e-015 1.000000e+000
      vertex   4.829629e+000 -1.294095e+000 1.000000e+000
    endloop
  endfacet
  facet normal 0.000000e+000 0.000000e+000 1.000000e+000
    outer loop
      vertex   4.330127e+000 2.500000e+000 1.000000e+000
      vertex   8.660254e+000 5.000000e+000 1.000000e+000
      vertex   7.071068e+000 7.071068e+000 1.000000e+000
    endloop
  endfacet
  facet normal 0.000000e+000 0.000000e+000 1.000000e+000
    outer loop
      vertex   -2.500000e+000 4.330127e+000 1.000000e+000
      vertex   -5.000000e+000 8.660254e+000 1.000000e+000
      vertex   -7.071068e+000 7.071068e+000 1.000000e+000
    endloop
  endfacet
  facet normal 0.000000e+000 0.000000e+000 1.000000e+000
    outer loop
      vertex   -1.000000e+001 0.000000e+000 1.000000e+000
      vertex   -5.000000e+000 0.000000e+000 1.000000e+000
      vertex   -4.829629e+000 1.294095e+000 1.000000e+000
    endloop
  endfacet
  facet normal 0.000000e+000 0.000000e+000 1.000000e+000
    outer loop
      vertex   -1.000000e+001 0.000000e+000 1.000000e+000
      vertex   -9.659258e+000 -2.588190e+000 1.000000e+000
      vertex   -4.829629e+000 -1.294095e+000 1.000000e+000
    endloop
  endfacet
  facet normal 0.000000e+000 0.000000e+000 1.000000e+000
    outer loop
      vertex   -3.535534e+000 -3.535534e+000 1.000000e+000
      vertex   -4.330127e+000 -2.500000e+000 1.000000e+000
      vertex   -8.660254e+000 -5.000000e+000 1.000000e+000
    endloop
  endfacet
  facet normal 0.000000e+000 0.000000e+000 1.000000e+000
    outer loop
      vertex   -1.294095e+000 -4.829629e+000 1.000000e+000
      vertex   -2.500000e+000 -4.330127e+000 1.000000e+000
      vertex   -5.000000e+000 -8.660254e+000 1.000000e+000
    endloop
  endfacet
  facet normal 0.000000e+000 0.000000e+000 1.000000e+000
    outer loop
      vertex   2.500000e+000 -4.330127e+000 1.000000e+000
      vertex   5.000000e+000 -8.660254e+000 1.000000e+000
      vertex   7.071068e+000 -7.071068e+000 1.000000e+000
    endloop
  endfacet
  facet normal 0.000000e+000 0.000000e+000 1.000000e+000
    outer loop
      vertex   4.829629e+000 -1.294095e+000 1.000000e+000
      vertex   9.659258e+000 -2.588190e+000 1.000000e+000
      vertex   1.000000e+001 5.665498e-015 1.000000e+000
    endloop
  endfacet
  facet normal 0.000000e+000 0.000000e+000 1.000000e+000
    outer loop
      vertex   1.294095e+000 4.829629e+000 1.000000e+000
      vertex   2.588190e+000 9.659258e+000 1.000000e+000
      vertex   -2.832749e-015 1.000000e+001 1.000000e+000
    endloop
  endfacet
  facet normal 0.000000e+000 0.000000e+000 1.000000e+000
    outer loop
      vertex   -4.829629e+000 -1.294095e+000 1.000000e+000
      vertex   -5.000000e+000 0.000000e+000 1.000000e+000
      vertex   -1.000000e+001 0.000000e+000 1.000000e+000
    endloop
  endfacet
  facet normal 0.000000e+000 0.000000e+000 1.000000e+000
    outer loop
      vertex   -3.535534e+000 -3.535534e+000 1.000000e+000
      vertex   -7.071068e+000 -7.071068e+000 1.000000e+000
      vertex   -5.000000e+000 -8.660254e+000 1.000000e+000
    endloop
  endfacet
  facet normal 0.000000e+000 0.000000e+000 1.000000e+000
    outer loop
      vertex   4.829629e+000 -1.294095e+000 1.000000e+000
      vertex   4.330127e+000 -2.500000e+000 1.000000e+000
      vertex   8.660254e+000 -5.000000e+000 1.000000e+000
    endloop
  endfacet
  facet normal 0.000000e+000 0.000000e+000 1.000000e+000
    outer loop
      vertex   -4.829629e+000 1.294095e+000 1.000000e+000
      vertex   -9.659258e+000 2.588190e+000 1.000000e+000
      vertex   -1.000000e+001 0.000000e+000 1.000000e+000
    endloop
  endfacet
  facet normal 0.000000e+000 0.000000e+000 1.000000e+000
    outer loop
      vertex   -1.294095e+000 -4.829629e+000 1.000000e+000
      vertex   -2.588190e+000 -9.659258e+000 1.000000e+000
      vertex   1.071869e-014 -1.000000e+001 1.000000e+000
    endloop
  endfacet
  facet normal 0.000000e+000 0.000000e+000 1.000000e+000
    outer loop
      vertex   -4.829629e+000 -1.294095e+000 1.000000e+000
      vertex   -9.659258e+000 -2.588190e+000 1.000000e+000
      vertex   -8.660254e+000 -5.000000e+000 1.000000e+000
    endloop
  endfacet
  facet normal 0.000000e+000 0.000000e+000 1.000000e+000
    outer loop
      vertex   5.000000e+000 2.832749e-015 1.000000e+000
      vertex   1.000000e+001 5.665498e-015 1.000000e+000
      vertex   9.659258e+000 2.588190e+000 1.000000e+000
    endloop
  endfacet
  facet normal -9.847690e-001 1.738676e-001 0.000000e+000
    outer loop
      vertex   -1.000000e+001 0.000000e+000 1.000000e+000
      vertex   -9.659258e+000 2.588190e+000 1.000000e+000
      vertex   -9.659258e+000 2.588190e+000 0.000000e+000
    endloop
  endfacet
  facet normal -9.062136e-001 4.228202e-001 0.000000e+000
    outer loop
      vertex   -9.659258e+000 2.588190e+000 1.000000e+000
      vertex   -8.660254e+000 5.000000e+000 1.000000e+000
      vertex   -8.660254e+000 5.000000e+000 0.000000e+000
    endloop
  endfacet
  facet normal -7.659012e-001 6.429583e-001 0.000000e+000
    outer loop
      vertex   -8.660254e+000 5.000000e+000 1.000000e+000
      vertex   -7.071068e+000 7.071068e+000 1.000000e+000
      vertex   -7.071068e+000 7.071068e+000 0.000000e+000
    endloop
  endfacet
  facet normal -5.733939e-001 8.192798e-001 0.000000e+000
    outer loop
      vertex   -7.071068e+000 7.071068e+000 1.000000e+000
      vertex   -5.000000e+000 8.660254e+000 1.000000e+000
      vertex   -5.000000e+000 8.660254e+000 0.000000e+000
    endloop
  endfacet
  facet normal -3.418108e-001 9.397688e-001 0.000000e+000
    outer loop
      vertex   -5.000000e+000 8.660254e+000 1.000000e+000
      vertex   -2.588190e+000 9.659258e+000 1.000000e+000
      vertex   -2.588190e+000 9.659258e+000 0.000000e+000
    endloop
  endfacet
  facet normal -8.693379e-002 9.962141e-001 0.000000e+000
    outer loop
      vertex   -2.588190e+000 9.659258e+000 1.000000e+000
      vertex   -2.832749e-015 1.000000e+001 1.000000e+000
      vertex   -2.832749e-015 1.000000e+001 0.000000e+000
    endloop
  endfacet
  facet normal 1.738676e-001 9.847690e-001 0.000000e+000
    outer loop
      vertex   -2.832749e-015 1.000000e+001 1.000000e+000
      vertex   2.588190e+000 9.659258e+000 1.000000e+000
      vertex   2.588190e+000 9.659258e+000 0.000000e+000
    endloop
  endfacet
  facet normal 4.228202e-001 9.062136e-001 0.000000e+000
    outer loop
      vertex   2.588190e+000 9.659258e+000 1.000000e+000
      vertex   5.000000e+000 8.660254e+000 1.000000e+000
      vertex   5.000000e+000 8.660254e+000 0.000000e+000
    endloop
  endfacet
  facet normal 6.429583e-001 7.659012e-001 0.000000e+000
    outer loop
      vertex   5.000000e+000 8.660254e+000 1.000000e+000
      vertex   7.071068e+000 7.071068e+000 1.000000e+000
      vertex   7.071068e+000 7.071068e+000 0.000000e+000
    endloop
  endfacet
  facet normal 8.192798e-001 5.733939e-001 0.000000e+000
    outer loop
      vertex   7.071068e+000 7.071068e+000 1.000000e+000
      vertex   8.660254e+000 5.000000e+000 1.000000e+000
      vertex   8.660254e+000 5.000000e+000 0.000000e+000
    endloop
  endfacet
  facet normal 9.397688e-001 3.418108e-001 0.000000e+000
    outer loop
      vertex   8.660254e+000 5.000000e+000 1.000000e+000
      vertex   9.659258e+000 2.588190e+000 1.000000e+000
      vertex   9.659258e+000 2.588190e+000 0.000000e+000
    endloop
  endfacet
  facet normal 9.962141e-001 8.693379e-002 0.000000e+000
    outer loop
      vertex   9.659258e+000 2.588190e+000 1.000000e+000
      vertex   1.000000e+001 5.665498e-015 1.000000e+000
      vertex   1.000000e+001 5.665498e-015 0.000000e+000
    endloop
  endfacet
  facet normal 9.847690e-001 -1.738676e-001 0.000000e+000
    outer loop
      vertex   1.000000e+001 5.665498e-015 1.000000e+000
      vertex   9.659258e+000 -2.588190e+000 1.000000e+000
      vertex   9.659258e+000 -2.588190e+000 0.000000e+000
    endloop
  endfacet
  facet normal 9.062136e-001 -4.228202e-001 0.000000e+000
    outer loop
      vertex   9.659258e+000 -2.588190e+000 1.000000e+000
      vertex   8.660254e+000 -5.000000e+000 1.000000e+000
      vertex   8.660254e+000 -5.000000e+000 0.000000e+000
    endloop
  endfacet
  facet normal 7.659012e-001 -6.429583e-001 0.000000e+000
    outer loop
      vertex   8.660254e+000 -5.000000e+000 1.000000e+000
      vertex   7.071068e+000 -7.071068e+000 1.000000e+000
      vertex   7.071068e+000 -7.071068e+000 0.000000e+000
    endloop
  endfacet
  facet normal 5.733939e-001 -8.192798e-001 0.000000e+000
    outer loop
      vertex   7.071068e+000 -7.071068e+000 1.000000e+000
      vertex   5.000000e+000 -8.660254e+000 1.000000e+000
      vertex   5.000000e+000 -8.660254e+000 0.000000e+000
    endloop
  endfacet
  facet normal 3.418108e-001 -9.397688e-001 0.000000e+000
    outer loop
      vertex   5.000000e+000 -8.660254e+000 1.000000e+000
      vertex   2.588190e+000 -9.659258e+000 1.000000e+000
      vertex   2.588190e+000 -9.659258e+000 0.000000e+000
    endloop
  endfacet
  facet normal 8.693379e-002 -9.962141e-001 0.000000e+000
    outer loop
      vertex   2.588190e+000 -9.659258e+000 1.000000e+000
      vertex   1.071869e-014 -1.000000e+001 1.000000e+000
      vertex   1.071869e-014 -1.000000e+001 0.000000e+000
    endloop
  endfacet
  facet normal -1.738676e-001 -9.847690e-001 0.000000e+000
    outer loop
      vertex   1.071869e-014 -1.000000e+001 1.000000e+000
      vertex   -2.588190e+000 -9.659258e+000 1.000000e+000
      vertex   -2.588190e+000 -9.659258e+000 0.000000e+000
    endloop
  endfacet
  facet normal -4.228202e-001 -9.062136e-001 0.000000e+000
    outer loop
      vertex   -2.588190e+000 -9.659258e+000 1.000000e+000
      vertex   -5.000000e+000 -8.660254e+000 1.000000e+000
      vertex   -5.000000e+000 -8.660254e+000 0.000000e+000
    endloop
  endfacet
  facet normal -6.429583e-001 -7.659012e-001 0.000000e+000
    outer loop
      vertex   -5.000000e+000 -8.660254e+000 1.000000e+000
      vertex   -7.071068e+000 -7.071068e+000 1.000000e+000
      vertex   -7.071068e+000 -7.071068e+000 0.000000e+000
    endloop
  endfacet
  facet normal -8.192798e-001 -5.733939e-001 0.000000e+000
    outer loop
      vertex   -7.071068e+000 -7.071068e+000 1.000000e+000
      vertex   -8.660254e+000 -5.000000e+000 1.000000e+000
      vertex   -8.660254e+000 -5.000000e+000 0.000000e+000
    endloop
  endfacet
  facet normal -9.397688e-001 -3.418108e-001 0.000000e+000
    outer loop
      vertex   -8.660254e+000 -5.000000e+000 1.000000e+000
      vertex   -9.659258e+000 -2.588190e+000 1.000000e+000
      vertex   -9.659258e+000 -2.588190e+000 0.000000e+000
    endloop
  endfacet
  facet normal -9.962141e-001 -8.693379e-002 0.000000e+000
    outer loop
      vertex   -9.659258e+000 -2.588190e+000 1.000000e+000
      vertex   -1.000000e+001 0.000000e+000 1.000000e+000
      vertex   -1.000000e+001 0.000000e+000 0.000000e+000
    endloop
  endfacet
  facet normal -9.847690e-001 -1.738676e-001 0.000000e+000
    outer loop
      vertex   -1.000000e+001 0.000000e+000 0.000000e+000
      vertex   -9.659258e+000 -2.588190e+000 0.000000e+000
      vertex   -9.659258e+000 -2.588190e+000 1.000000e+000
    endloop
  endfacet
  facet normal -9.062136e-001 -4.228202e-001 0.000000e+000
    outer loop
      vertex   -9.659258e+000 -2.588190e+000 0.000000e+000
      vertex   -8.660254e+000 -5.000000e+000 0.000000e+000
      vertex   -8.660254e+000 -5.000000e+000 1.000000e+000
    endloop
  endfacet
  facet normal -7.659012e-001 -6.429583e-001 0.000000e+000
    outer loop
      vertex   -8.660254e+000 -5.000000e+000 0.000000e+000
      vertex   -7.071068e+000 -7.071068e+000 0.000000e+000
      vertex   -7.071068e+000 -7.071068e+000 1.000000e+000
    endloop
  endfacet
  facet normal -5.733939e-001 -8.192798e-001 0.000000e+000
    outer loop
      vertex   -7.071068e+000 -7.071068e+000 0.000000e+000
      vertex   -5.000000e+000 -8.660254e+000 0.000000e+000
      vertex   -5.000000e+000 -8.660254e+000 1.000000e+000
    endloop
  endfacet
  facet normal -3.418108e-001 -9.397688e-001 0.000000e+000
    outer loop
      vertex   -5.000000e+000 -8.660254e+000 0.000000e+000
      vertex   -2.588190e+000 -9.659258e+000 0.000000e+000
      vertex   -2.588190e+000 -9.659258e+000 1.000000e+000
    endloop
  endfacet
  facet normal -8.693379e-002 -9.962141e-001 0.000000e+000
    outer loop
      vertex   -2.588190e+000 -9.659258e+000 0.000000e+000
      vertex   1.071869e-014 -1.000000e+001 0.000000e+000
      vertex   1.071869e-014 -1.000000e+001 1.000000e+000
    endloop
  endfacet
  facet normal 1.738676e-001 -9.847690e-001 0.000000e+000
    outer loop
      vertex   1.071869e-014 -1.000000e+001 0.000000e+000
      vertex   2.588190e+000 -9.659258e+000 0.000000e+000
      vertex   2.588190e+000 -9.659258e+000 1.000000e+000
    endloop
  endfacet
  facet normal 4.228202e-001 -9.062136e-001 0.000000e+000
    outer loop
      vertex   2.588190e+000 -9.659258e+000 0.000000e+000
      vertex   5.000000e+000 -8.660254e+000 0.000000e+000
      vertex   5.000000e+000 -8.660254e+000 1.000000e+000
    endloop
  endfacet
  facet normal 6.429583e-001 -7.659012e-001 0.000000e+000
    outer loop
      vertex   5.000000e+000 -8.660254e+000 0.000000e+000
      vertex   7.071068e+000 -7.071068e+000 0.000000e+000
      vertex   7.071068e+000 -7.071068e+000 1.000000e+000
    endloop
  endfacet
  facet normal 8.192798e-001 -5.733939e-001 0.000000e+000
    outer loop
      vertex   7.071068e+000 -7.071068e+000 0.000000e+000
      vertex   8.660254e+000 -5.000000e+000 0.000000e+000
      vertex   8.660254e+000 -5.000000e+000 1.000000e+000
    endloop
  endfacet
  facet normal 9.397688e-001 -3.418108e-001 0.000000e+000
    outer loop
      vertex   8.660254e+000 -5.000000e+000 0.000000e+000
      vertex   9.659258e+000 -2.588190e+000 0.000000e+000
      vertex   9.659258e+000 -2.588190e+000 1.000000e+000
    endloop
  endfacet
  facet normal 9.962141e-001 -8.693379e-002 0.000000e+000
    outer loop
      vertex   9.659258e+000 -2.588190e+000 0.000000e+000
      vertex   1.000000e+001 5.665498e-015 0.000000e+000
      vertex   1.000000e+001 5.665498e-015 1.000000e+000
    endloop
  endfacet
  facet normal 9.847690e-001 1.738676e-001 0.000000e+000
    outer loop
      vertex   1.000000e+001 5.665498e-015 0.000000e+000
      vertex   9.659258e+000 2.588190e+000 0.000000e+000
      vertex   9.659258e+000 2.588190e+000 1.000000e+000
    endloop
  endfacet
  facet normal 9.062136e-001 4.228202e-001 0.000000e+000
    outer loop
      vertex   9.659258e+000 2.588190e+000 0.000000e+000
      vertex   8.660254e+000 5.000000e+000 0.000000e+000
      vertex   8.660254e+000 5.000000e+000 1.000000e+000
    endloop
  endfacet
  facet normal 7.659012e-001 6.429583e-001 0.000000e+000
    outer loop
      vertex   8.660254e+000 5.000000e+000 0.000000e+000
      vertex   7.071068e+000 7.071068e+000 0.000000e+000
      vertex   7.071068e+000 7.071068e+000 1.000000e+000
    endloop
  endfacet
  facet normal 5.733939e-001 8.192798e-001 0.000000e+000
    outer loop
      vertex   7.071068e+000 7.071068e+000 0.000000e+000
      vertex   5.000000e+000 8.660254e+000 0.000000e+000
      vertex   5.000000e+000 8.660254e+000 1.000000e+000
    endloop
  endfacet
  facet normal 3.418108e-001 9.397688e-001 0.000000e+000
    outer loop
      vertex   5.000000e+000 8.660254e+000 0.000000e+000
      vertex   2.588190e+000 9.659258e+000 0.000000e+000
      vertex   2.588190e+000 9.659258e+000 1.000000e+000
    endloop
  endfacet
  facet normal 8.693379e-002 9.962141e-001 0.000000e+000
    outer loop
      vertex   2.588190e+000 9.659258e+000 0.000000e+000
      vertex   -2.832749e-015 1.000000e+001 0.000000e+000
      vertex   -2.832749e-015 1.000000e+001 1.000000e+000
    endloop
  endfacet
  facet normal -1.738676e-001 9.847690e-001 0.000000e+000
    outer loop
      vertex   -2.832749e-015 1.000000e+001 0.000000e+000
      vertex   -2.588190e+000 9.659258e+000 0.000000e+000
      vertex   -2.588190e+000 9.659258e+000 1.000000e+000
    endloop
  endfacet
  facet normal -4.228202e-001 9.062136e-001 0.000000e+000
    outer loop
      vertex   -2.588190e+000 9.659258e+000 0.000000e+000
      vertex   -5.000000e+000 8.660254e+000 0.000000e+000
      vertex   -5.000000e+000 8.660254e+000 1.000000e+000
    endloop
  endfacet
  facet normal -6.429583e-001 7.659012e-001 0.000000e+000
    outer loop
      vertex   -5.000000e+000 8.660254e+000 0.000000e+000
      vertex   -7.071068e+000 7.071068e+000 0.000000e+000
      vertex   -7.071068e+000 7.071068e+000 1.000000e+000
    endloop
  endfacet
  facet normal -8.192798e-001 5.733939e-001 0.000000e+000
    outer loop
      vertex   -7.071068e+000 7.071068e+000 0.000000e+000
      vertex   -8.660254e+000 5.000000e+000 0.000000e+000
      vertex   -8.660254e+000 5.000000e+000 1.000000e+000
    endloop
  endfacet
  facet normal -9.397688e-001 3.418108e-001 0.000000e+000
    outer loop
      vertex   -8.660254e+000 5.000000e+000 0.000000e+000
      vertex   -9.659258e+000 2.588190e+000 0.000000e+000
      vertex   -9.659258e+000 2.588190e+000 1.000000e+000
    endloop
  endfacet
  facet normal -9.962141e-001 8.693379e-002 0.000000e+000
    outer loop
      vertex   -9.659258e+000 2.588190e+000 0.000000e+000
      vertex   -1.000000e+001 0.000000e+000 0.000000e+000
      vertex   -1.000000e+001 0.000000e+000 1.000000e+000
    endloop
  endfacet
  facet normal 0.000000e+000 0.000000e+000 -1.000000e+000
    outer loop
      vertex   -8.660254e+000 5.000000e+000 0.000000e+000
      vertex   -4.330127e+000 2.500000e+000 0.000000e+000
      vertex   -4.829629e+000 1.294095e+000 0.000000e+000
    endloop
  endfacet
  facet normal 0.000000e+000 0.000000e+000 -1.000000e+000
    outer loop
      vertex   -8.660254e+000 5.000000e+000 0.000000e+000
      vertex   -7.071068e+000 7.071068e+000 0.000000e+000
      vertex   -3.535534e+000 3.535534e+000 0.000000e+000
    endloop
  endfacet
  facet normal 0.000000e+000 0.000000e+000 -1.000000e+000
    outer loop
      vertex   9.659258e+000 2.588190e+000 0.000000e+000
      vertex   4.829629e+000 1.294095e+000 0.000000e+000
      vertex   4.330127e+000 2.500000e+000 0.000000e+000
    endloop
  endfacet
  facet normal 0.000000e+000 0.000000e+000 -1.000000e+000
    outer loop
      vertex   9.659258e+000 2.588190e+000 0.000000e+000
      vertex   1.000000e+001 5.665498e-015 0.000000e+000
      vertex   5.000000e+000 2.832749e-015 0.000000e+000
    endloop
  endfacet
  facet normal 0.000000e+000 0.000000e+000 -1.000000e+000
    outer loop
      vertex   -3.535534e+000 3.535534e+000 0.000000e+000
      vertex   -4.330127e+000 2.500000e+000 0.000000e+000
      vertex   -8.660254e+000 5.000000e+000 0.000000e+000
    endloop
  endfacet
  facet normal 0.000000e+000 0.000000e+000 -1.000000e+000
    outer loop
      vertex   -7.071068e+000 7.071068e+000 0.000000e+000
      vertex   -5.000000e+000 8.660254e+000 0.000000e+000
      vertex   -2.500000e+000 4.330127e+000 0.000000e+000
    endloop
  endfacet
  facet normal 0.000000e+000 0.000000e+000 -1.000000e+000
    outer loop
      vertex   -2.588190e+000 9.659258e+000 0.000000e+000
      vertex   -1.294095e+000 4.829629e+000 0.000000e+000
      vertex   -2.500000e+000 4.330127e+000 0.000000e+000
    endloop
  endfacet
  facet normal 0.000000e+000 0.000000e+000 -1.000000e+000
    outer loop
      vertex   -2.588190e+000 9.659258e+000 0.000000e+000
      vertex   -2.832749e-015 1.000000e+001 0.000000e+000
      vertex   -1.416375e-015 5.000000e+000 0.000000e+000
    endloop
  endfacet
  facet normal 0.000000e+000 0.000000e+000 -1.000000e+000
    outer loop
      vertex   5.000000e+000 2.832749e-015 0.000000e+000
      vertex   4.829629e+000 1.294095e+000 0.000000e+000
      vertex   9.659258e+000 2.588190e+000 0.000000e+000
    endloop
  endfacet
  facet normal 0.000000e+000 0.000000e+000 -1.000000e+000
    outer loop
      vertex   9.659258e+000 -2.588190e+000 0.000000e+000
      vertex   4.829629e+000 -1.294095e+000 0.000000e+000
      vertex   5.000000e+000 2.832749e-015 0.000000e+000
    endloop
  endfacet
  facet normal 0.000000e+000 0.000000e+000 -1.000000e+000
    outer loop
      vertex   -2.500000e+000 4.330127e+000 0.000000e+000
      vertex   -3.535534e+000 3.535534e+000 0.000000e+000
      vertex   -7.071068e+000 7.071068e+000 0.000000e+000
    endloop
  endfacet
  facet normal 0.000000e+000 0.000000e+000 -1.000000e+000
    outer loop
      vertex   -1.416375e-015 5.000000e+000 0.000000e+000
      vertex   -1.294095e+000 4.829629e+000 0.000000e+000
      vertex   -2.588190e+000 9.659258e+000 0.000000e+000
    endloop
  endfacet
  facet normal 0.000000e+000 0.000000e+000 -1.000000e+000
    outer loop
      vertex   5.000000e+000 2.832749e-015 0.000000e+000
      vertex   1.000000e+001 5.665498e-015 0.000000e+000
      vertex   9.659258e+000 -2.588190e+000 0.000000e+000
    endloop
  endfacet
  facet normal 0.000000e+000 0.000000e+000 -1.000000e+000
    outer loop
      vertex   8.660254e+000 -5.000000e+000 0.000000e+000
      vertex   4.330127e+000 -2.500000e+000 0.000000e+000
      vertex   4.829629e+000 -1.294095e+000 0.000000e+000
    endloop
  endfacet
  facet normal 0.000000e+000 0.000000e+000 -1.000000e+000
    outer loop
      vertex   7.071068e+000 -7.071068e+000 0.000000e+000
      vertex   3.535534e+000 -3.535534e+000 0.000000e+000
      vertex   4.330127e+000 -2.500000e+000 0.000000e+000
    endloop
  endfacet
  facet normal 0.000000e+000 0.000000e+000 -1.000000e+000
    outer loop
      vertex   7.071068e+000 -7.071068e+000 0.000000e+000
      vertex   5.000000e+000 -8.660254e+000 0.000000e+000
      vertex   2.500000e+000 -4.330127e+000 0.000000e+000
    endloop
  endfacet
  facet normal 0.000000e+000 0.000000e+000 -1.000000e+000
    outer loop
      vertex   -2.500000e+000 4.330127e+000 0.000000e+000
      vertex   -5.000000e+000 8.660254e+000 0.000000e+000
      vertex   -2.588190e+000 9.659258e+000 0.000000e+000
    endloop
  endfacet
  facet normal 0.000000e+000 0.000000e+000 -1.000000e+000
    outer loop
      vertex   -2.832749e-015 1.000000e+001 0.000000e+000
      vertex   2.588190e+000 9.659258e+000 0.000000e+000
      vertex   1.294095e+000 4.829629e+000 0.000000e+000
    endloop
  endfacet
  facet normal 0.000000e+000 0.000000e+000 -1.000000e+000
    outer loop
      vertex   5.000000e+000 8.660254e+000 0.000000e+000
      vertex   2.500000e+000 4.330127e+000 0.000000e+000
      vertex   1.294095e+000 4.829629e+000 0.000000e+000
    endloop
  endfacet
  facet normal 0.000000e+000 0.000000e+000 -1.000000e+000
    outer loop
      vertex   5.000000e+000 8.660254e+000 0.000000e+000
      vertex   7.071068e+000 7.071068e+000 0.000000e+000
      vertex   3.535534e+000 3.535534e+000 0.000000e+000
    endloop
  endfacet
  facet normal 0.000000e+000 0.000000e+000 -1.000000e+000
    outer loop
      vertex   4.829629e+000 -1.294095e+000 0.000000e+000
      vertex   9.659258e+000 -2.588190e+000 0.000000e+000
      vertex   8.660254e+000 -5.000000e+000 0.000000e+000
    endloop
  endfacet
  facet normal 0.000000e+000 0.000000e+000 -1.000000e+000
    outer loop
      vertex   2.500000e+000 -4.330127e+000 0.000000e+000
      vertex   3.535534e+000 -3.535534e+000 0.000000e+000
      vertex   7.071068e+000 -7.071068e+000 0.000000e+000
    endloop
  endfacet
  facet normal 0.000000e+000 0.000000e+000 -1.000000e+000
    outer loop
      vertex   -9.659258e+000 2.588190e+000 0.000000e+000
      vertex   -4.829629e+000 1.294095e+000 0.000000e+000
      vertex   -5.000000e+000 0.000000e+000 0.000000e+000
    endloop
  endfacet
  facet normal 0.000000e+000 0.000000e+000 -1.000000e+000
    outer loop
      vertex   1.294095e+000 4.829629e+000 0.000000e+000
      vertex   -1.416375e-015 5.000000e+000 0.000000e+000
      vertex   -2.832749e-015 1.000000e+001 0.000000e+000
    endloop
  endfacet
  facet normal 0.000000e+000 0.000000e+000 -1.000000e+000
    outer loop
      vertex   3.535534e+000 3.535534e+000 0.000000e+000
      vertex   2.500000e+000 4.330127e+000 0.000000e+000
      vertex   5.000000e+000 8.660254e+000 0.000000e+000
    endloop
  endfacet
  facet normal 0.000000e+000 0.000000e+000 -1.000000e+000
    outer loop
      vertex   7.071068e+000 7.071068e+000 0.000000e+000
      vertex   8.660254e+000 5.000000e+000 0.000000e+000
      vertex   4.330127e+000 2.500000e+000 0.000000e+000
    endloop
  endfacet
  facet normal 0.000000e+000 0.000000e+000 -1.000000e+000
    outer loop
      vertex   4.330127e+000 -2.500000e+000 0.000000e+000
      vertex   8.660254e+000 -5.000000e+000 0.000000e+000
      vertex   7.071068e+000 -7.071068e+000 0.000000e+000
    endloop
  endfacet
  facet normal 0.000000e+000 0.000000e+000 -1.000000e+000
    outer loop
      vertex   5.000000e+000 -8.660254e+000 0.000000e+000
      vertex   2.588190e+000 -9.659258e+000 0.000000e+000
      vertex   1.294095e+000 -4.829629e+000 0.000000e+000
    endloop
  endfacet
  facet normal 0.000000e+000 0.000000e+000 -1.000000e+000
    outer loop
      vertex   1.071869e-014 -1.000000e+001 0.000000e+000
      vertex   5.359347e-015 -5.000000e+000 0.000000e+000
      vertex   1.294095e+000 -4.829629e+000 0.000000e+000
    endloop
  endfacet
  facet normal 0.000000e+000 0.000000e+000 -1.000000e+000
    outer loop
      vertex   1.071869e-014 -1.000000e+001 0.000000e+000
      vertex   -2.588190e+000 -9.659258e+000 0.000000e+000
      vertex   -1.294095e+000 -4.829629e+000 0.000000e+000
    endloop
  endfacet
  facet normal 0.000000e+000 0.000000e+000 -1.000000e+000
    outer loop
      vertex   -4.829629e+000 1.294095e+000 0.000000e+000
      vertex   -9.659258e+000 2.588190e+000 0.000000e+000
      vertex   -8.660254e+000 5.000000e+000 0.000000e+000
    endloop
  endfacet
  facet normal 0.000000e+000 0.000000e+000 -1.000000e+000
    outer loop
      vertex   4.330127e+000 2.500000e+000 0.000000e+000
      vertex   3.535534e+000 3.535534e+000 0.000000e+000
      vertex   7.071068e+000 7.071068e+000 0.000000e+000
    endloop
  endfacet
  facet normal 0.000000e+000 0.000000e+000 -1.000000e+000
    outer loop
      vertex   1.294095e+000 -4.829629e+000 0.000000e+000
      vertex   2.500000e+000 -4.330127e+000 0.000000e+000
      vertex   5.000000e+000 -8.660254e+000 0.000000e+000
    endloop
  endfacet
  facet normal 0.000000e+000 0.000000e+000 -1.000000e+000
    outer loop
      vertex   -1.294095e+000 -4.829629e+000 0.000000e+000
      vertex   5.359347e-015 -5.000000e+000 0.000000e+000
      vertex   1.071869e-014 -1.000000e+001 0.000000e+000
    endloop
  endfacet
  facet normal 0.000000e+000 0.000000e+000 -1.000000e+000
    outer loop
      vertex   1.294095e+000 4.829629e+000 0.000000e+000
      vertex   2.588190e+000 9.659258e+000 0.000000e+000
      vertex   5.000000e+000 8.660254e+000 0.000000e+000
    endloop
  endfacet
  facet normal 0.000000e+000 0.000000e+000 -1.000000e+000
    outer loop
      vertex   1.294095e+000 -4.829629e+000 0.000000e+000
      vertex   2.588190e+000 -9.659258e+000 0.000000e+000
      vertex   1.071869e-014 -1.000000e+001 0.000000e+000
    endloop
  endfacet
  facet normal 0.000000e+000 0.000000e+000 -1.000000e+000
    outer loop
      vertex   -5.000000e+000 -8.660254e+000 0.000000e+000
      vertex   -2.500000e+000 -4.330127e+000 0.000000e+000
      vertex   -1.294095e+000 -4.829629e+000 0.000000e+000
    endloop
  endfacet
  facet normal 0.000000e+000 0.000000e+000 -1.000000e+000
    outer loop
      vertex   -5.000000e+000 -8.660254e+000 0.000000e+000
      vertex   -7.071068e+000 -7.071068e+000 0.000000e+000
      vertex   -3.535534e+000 -3.535534e+000 0.000000e+000
    endloop
  endfacet
  facet normal 0.000000e+000 0.000000e+000 -1.000000e+000
    outer loop
      vertex   4.330127e+000 2.500000e+000 0.000000e+000
      vertex   8.660254e+000 5.000000e+000 0.000000e+000
      vertex   9.659258e+000 2.588190e+000 0.000000e+000
    endloop
  endfacet
  facet normal 0.000000e+000 0.000000e+000 -1.000000e+000
    outer loop
      vertex   -3.535534e+000 -3.535534e+000 0.000000e+000
      vertex   -2.500000e+000 -4.330127e+000 0.000000e+000
      vertex   -5.000000e+000 -8.660254e+000 0.000000e+000
    endloop
  endfacet
  facet normal 0.000000e+000 0.000000e+000 -1.000000e+000
    outer loop
      vertex   -8.660254e+000 -5.000000e+000 0.000000e+000
      vertex   -4.330127e+000 -2.500000e+000 0.000000e+000
      vertex   -3.535534e+000 -3.535534e+000 0.000000e+000
    endloop
  endfacet
  facet normal 0.000000e+000 0.000000e+000 -1.000000e+000
    outer loop
      vertex   -8.660254e+000 -5.000000e+000 0.000000e+000
      vertex   -9.659258e+000 -2.588190e+000 0.000000e+000
      vertex   -4.829629e+000 -1.294095e+000 0.000000e+000
    endloop
  endfacet
  facet normal 0.000000e+000 0.000000e+000 -1.000000e+000
    outer loop
      vertex   -1.294095e+000 -4.829629e+000 0.000000e+000
      vertex   -2.588190e+000 -9.659258e+000 0.000000e+000
      vertex   -5.000000e+000 -8.660254e+000 0.000000e+000
    endloop
  endfacet
  facet normal 0.000000e+000 0.000000e+000 -1.000000e+000
    outer loop
      vertex   -4.829629e+000 -1.294095e+000 0.000000e+000
      vertex   -4.330127e+000 -2.500000e+000 0.000000e+000
      vertex   -8.660254e+000 -5.000000e+000 0.000000e+000
    endloop
  endfacet
  facet normal 0.000000e+000 0.000000e+000 -1.000000e+000
    outer loop
      vertex   -3.535534e+000 -3.535534e+000 0.000000e+000
      vertex   -7.071068e+000 -7.071068e+000 0.000000e+000
      vertex   -8.660254e+000 -5.000000e+000 0.000000e+000
    endloop
  endfacet
  facet normal 0.000000e+000 0.000000e+000 -1.000000e+000
    outer loop
      vertex   -1.000000e+001 0.000000e+000 0.000000e+000
      vertex   -5.000000e+000 0.000000e+000 0.000000e+000
      vertex   -4.829629e+000 -1.294095e+000 0.000000e+000
    endloop
  endfacet
  facet normal 0.000000e+000 0.000000e+000 -1.000000e+000
    outer loop
      vertex   -4.829629e+000 -1.294095e+000 0.000000e+000
      vertex   -9.659258e+000 -2.588190e+000 0.000000e+000
      vertex   -1.000000e+001 0.000000e+000 0.000000e+000
    endloop
  endfacet
  facet normal 0.000000e+000 0.000000e+000 -1.000000e+000
    outer loop
      vertex   -5.000000e+000 0.000000e+000 0.000000e+000
      vertex   -1.000000e+001 0.000000e+000 0.000000e+000
      vertex   -9.659258e+000 2.588190e+000 0.000000e+000
    endloop
  endfacet
endsolid
